<mxfile host="Electron" modified="2024-04-05T16:01:25.164Z" agent="Mozilla/5.0 (X11; Linux x86_64) AppleWebKit/537.36 (KHTML, like Gecko) draw.io/24.1.0 Chrome/120.0.6099.109 Electron/28.1.0 Safari/537.36" etag="LQbK8CJcdWq5sVE4-dED" version="24.1.0" type="device">
  <diagram name="Page-1" id="-cMVqA2Gkwa5aGeDibPs">
    <mxGraphModel dx="3385" dy="2900" grid="1" gridSize="10" guides="1" tooltips="1" connect="1" arrows="1" fold="1" page="0" pageScale="1" pageWidth="413" pageHeight="583" math="1" shadow="0">
      <root>
        <mxCell id="0" />
        <mxCell id="1" parent="0" />
        <mxCell id="GCO7xrDp6TmdYOZJOnFd-1" value="&lt;font style=&quot;font-size: 9px;&quot;&gt;$$UOelPu$$&lt;/font&gt;" style="triangle;whiteSpace=wrap;html=1;align=left;" parent="1" vertex="1">
          <mxGeometry x="-300" y="-280" width="60" height="80" as="geometry" />
        </mxCell>
        <mxCell id="GCO7xrDp6TmdYOZJOnFd-2" value="&lt;font style=&quot;font-size: 9px;&quot;&gt;$$UsPu$$&lt;/font&gt;" style="triangle;whiteSpace=wrap;html=1;align=left;" parent="1" vertex="1">
          <mxGeometry x="-300" y="40" width="60" height="80" as="geometry" />
        </mxCell>
        <mxCell id="eN8Zq5XajQ-hrPbZrUXH-5" style="edgeStyle=orthogonalEdgeStyle;rounded=0;orthogonalLoop=1;jettySize=auto;html=1;exitX=1;exitY=0.5;exitDx=0;exitDy=0;entryX=0;entryY=0.75;entryDx=0;entryDy=0;" parent="1" source="GCO7xrDp6TmdYOZJOnFd-3" target="GCO7xrDp6TmdYOZJOnFd-4" edge="1">
          <mxGeometry relative="1" as="geometry">
            <Array as="points">
              <mxPoint x="-40" y="240" />
              <mxPoint x="-40" y="180" />
            </Array>
          </mxGeometry>
        </mxCell>
        <mxCell id="GCO7xrDp6TmdYOZJOnFd-3" value="&lt;font style=&quot;font-size: 9px;&quot;&gt;$$UsRefPu$$&lt;/font&gt;" style="triangle;whiteSpace=wrap;html=1;align=left;" parent="1" vertex="1">
          <mxGeometry x="-300" y="200" width="60" height="80" as="geometry" />
        </mxCell>
        <mxCell id="eN8Zq5XajQ-hrPbZrUXH-8" value="" style="edgeStyle=orthogonalEdgeStyle;rounded=0;orthogonalLoop=1;jettySize=auto;html=1;" parent="1" source="GCO7xrDp6TmdYOZJOnFd-4" target="GCO7xrDp6TmdYOZJOnFd-120" edge="1">
          <mxGeometry relative="1" as="geometry" />
        </mxCell>
        <mxCell id="GCO7xrDp6TmdYOZJOnFd-4" value="&lt;table&gt;&lt;tbody&gt;&lt;tr&gt;&lt;td&gt;$$-1$$&lt;/td&gt;&lt;/tr&gt;&lt;tr&gt;&lt;td&gt;$$1$$&lt;/td&gt;&lt;/tr&gt;&lt;/tbody&gt;&lt;/table&gt;" style="whiteSpace=wrap;html=1;aspect=fixed;" parent="1" vertex="1">
          <mxGeometry y="120" width="80" height="80" as="geometry" />
        </mxCell>
        <mxCell id="GCO7xrDp6TmdYOZJOnFd-127" style="edgeStyle=orthogonalEdgeStyle;rounded=0;orthogonalLoop=1;jettySize=auto;html=1;exitX=0.5;exitY=1;exitDx=0;exitDy=0;" parent="1" source="GCO7xrDp6TmdYOZJOnFd-99" edge="1">
          <mxGeometry relative="1" as="geometry">
            <mxPoint x="1120.2" y="-129.79999999999995" as="targetPoint" />
          </mxGeometry>
        </mxCell>
        <mxCell id="GCO7xrDp6TmdYOZJOnFd-99" value="$$\frac{1+tC1*s}{1+tB1*s}$$" style="rounded=0;whiteSpace=wrap;html=1;" parent="1" vertex="1">
          <mxGeometry x="1080" y="-200" width="80" height="80" as="geometry" />
        </mxCell>
        <mxCell id="GCO7xrDp6TmdYOZJOnFd-110" value="" style="endArrow=none;html=1;exitX=0.5;exitY=0;exitDx=0;exitDy=0;" parent="1" source="GCO7xrDp6TmdYOZJOnFd-99" edge="1">
          <mxGeometry width="50" height="50" relative="1" as="geometry">
            <mxPoint x="1120" y="-190" as="sourcePoint" />
            <mxPoint x="1140" y="-210" as="targetPoint" />
          </mxGeometry>
        </mxCell>
        <mxCell id="GCO7xrDp6TmdYOZJOnFd-111" value="" style="endArrow=none;html=1;" parent="1" edge="1">
          <mxGeometry width="50" height="50" relative="1" as="geometry">
            <mxPoint x="1140" y="-210" as="sourcePoint" />
            <mxPoint x="1160" y="-210" as="targetPoint" />
          </mxGeometry>
        </mxCell>
        <mxCell id="GCO7xrDp6TmdYOZJOnFd-112" value="&lt;font style=&quot;font-size: 9px;&quot;&gt;$$VrMaxPu$$&lt;/font&gt;" style="text;html=1;strokeColor=none;fillColor=none;align=center;verticalAlign=middle;whiteSpace=wrap;rounded=0;fontSize=15;" parent="1" vertex="1">
          <mxGeometry x="1124" y="-240" width="60" height="30" as="geometry" />
        </mxCell>
        <mxCell id="GCO7xrDp6TmdYOZJOnFd-113" value="" style="endArrow=none;html=1;" parent="1" edge="1">
          <mxGeometry width="50" height="50" relative="1" as="geometry">
            <mxPoint x="1081" y="-110" as="sourcePoint" />
            <mxPoint x="1061" y="-110" as="targetPoint" />
          </mxGeometry>
        </mxCell>
        <mxCell id="GCO7xrDp6TmdYOZJOnFd-114" value="&lt;font style=&quot;font-size: 9px;&quot;&gt;$$VrMinPu$$&lt;/font&gt;" style="text;html=1;strokeColor=none;fillColor=none;align=center;verticalAlign=middle;whiteSpace=wrap;rounded=0;fontSize=15;" parent="1" vertex="1">
          <mxGeometry x="1040" y="-114" width="60" height="30" as="geometry" />
        </mxCell>
        <mxCell id="GCO7xrDp6TmdYOZJOnFd-115" value="" style="endArrow=none;html=1;exitX=0.5;exitY=0;exitDx=0;exitDy=0;entryX=0.25;entryY=1;entryDx=0;entryDy=0;" parent="1" target="GCO7xrDp6TmdYOZJOnFd-99" edge="1">
          <mxGeometry width="50" height="50" relative="1" as="geometry">
            <mxPoint x="1081" y="-110" as="sourcePoint" />
            <mxPoint x="1101" y="-130" as="targetPoint" />
          </mxGeometry>
        </mxCell>
        <mxCell id="RFu0Am9u5nQgDgnjEsIO-2" value="" style="edgeStyle=orthogonalEdgeStyle;rounded=0;orthogonalLoop=1;jettySize=auto;html=1;" edge="1" parent="1" source="GCO7xrDp6TmdYOZJOnFd-120" target="hHR6AVDcYujb22-yYQ_T-5">
          <mxGeometry relative="1" as="geometry" />
        </mxCell>
        <mxCell id="GCO7xrDp6TmdYOZJOnFd-120" value="&lt;table style=&quot;&quot;&gt;&lt;tbody&gt;&lt;tr&gt;&lt;td&gt;&lt;font style=&quot;font-size: 12px;&quot;&gt;$$+$$&lt;/font&gt;&lt;/td&gt;&lt;/tr&gt;&lt;/tbody&gt;&lt;/table&gt;" style="whiteSpace=wrap;html=1;aspect=fixed;" parent="1" vertex="1">
          <mxGeometry x="160" y="120" width="80" height="80" as="geometry" />
        </mxCell>
        <mxCell id="pcb0Rrb9AqgbB0oOaPCg-23" value="&lt;font style=&quot;font-size: 10px;&quot;&gt;$$EfdPu$$&lt;/font&gt;" style="triangle;whiteSpace=wrap;html=1;align=left;" parent="1" vertex="1">
          <mxGeometry x="2080" y="120" width="60" height="80" as="geometry" />
        </mxCell>
        <mxCell id="eN8Zq5XajQ-hrPbZrUXH-3" value="$$\frac{1}{1+tR*s}$$" style="whiteSpace=wrap;html=1;aspect=fixed;" parent="1" vertex="1">
          <mxGeometry x="-160" y="40" width="80" height="80" as="geometry" />
        </mxCell>
        <mxCell id="eN8Zq5XajQ-hrPbZrUXH-10" value="&lt;font style=&quot;font-size: 9px;&quot;&gt;$$UUelPu$$&lt;/font&gt;" style="triangle;whiteSpace=wrap;html=1;align=left;" parent="1" vertex="1">
          <mxGeometry x="-300" y="319" width="60" height="80" as="geometry" />
        </mxCell>
        <mxCell id="eN8Zq5XajQ-hrPbZrUXH-11" value="&lt;font style=&quot;font-size: 9px;&quot;&gt;$$UPssPu$$&lt;/font&gt;" style="triangle;whiteSpace=wrap;html=1;align=left;" parent="1" vertex="1">
          <mxGeometry x="-300" y="-160" width="60" height="80" as="geometry" />
        </mxCell>
        <mxCell id="RFu0Am9u5nQgDgnjEsIO-71" style="edgeStyle=orthogonalEdgeStyle;rounded=0;orthogonalLoop=1;jettySize=auto;html=1;exitX=1;exitY=0.5;exitDx=0;exitDy=0;entryX=0;entryY=0.5;entryDx=0;entryDy=0;" edge="1" parent="1" source="eN8Zq5XajQ-hrPbZrUXH-25" target="RFu0Am9u5nQgDgnjEsIO-1">
          <mxGeometry relative="1" as="geometry">
            <mxPoint x="1770" y="160" as="targetPoint" />
          </mxGeometry>
        </mxCell>
        <mxCell id="eN8Zq5XajQ-hrPbZrUXH-25" value="" style="ellipse;whiteSpace=wrap;html=1;aspect=fixed;" parent="1" vertex="1">
          <mxGeometry x="1700" y="140" width="40" height="40" as="geometry" />
        </mxCell>
        <mxCell id="eN8Zq5XajQ-hrPbZrUXH-26" value="+" style="text;html=1;strokeColor=none;fillColor=none;align=center;verticalAlign=middle;whiteSpace=wrap;rounded=0;fontSize=20;" parent="1" vertex="1">
          <mxGeometry x="1660" y="160.5" width="60" height="31" as="geometry" />
        </mxCell>
        <mxCell id="eN8Zq5XajQ-hrPbZrUXH-27" value="-" style="text;html=1;strokeColor=none;fillColor=none;align=center;verticalAlign=middle;whiteSpace=wrap;rounded=0;fontSize=20;" parent="1" vertex="1">
          <mxGeometry x="1713" y="110" width="60" height="30" as="geometry" />
        </mxCell>
        <mxCell id="t_mE9f2brvJdx7QCc9mF-1" value="" style="endArrow=classic;html=1;rounded=0;exitX=1;exitY=0.5;exitDx=0;exitDy=0;entryX=0;entryY=0.25;entryDx=0;entryDy=0;" parent="1" source="eN8Zq5XajQ-hrPbZrUXH-3" target="GCO7xrDp6TmdYOZJOnFd-4" edge="1">
          <mxGeometry width="50" height="50" relative="1" as="geometry">
            <mxPoint x="-50" y="80" as="sourcePoint" />
            <mxPoint y="30" as="targetPoint" />
            <Array as="points">
              <mxPoint x="-40" y="80" />
              <mxPoint x="-40" y="140" />
            </Array>
          </mxGeometry>
        </mxCell>
        <mxCell id="RFu0Am9u5nQgDgnjEsIO-9" value="" style="edgeStyle=orthogonalEdgeStyle;rounded=0;orthogonalLoop=1;jettySize=auto;html=1;" edge="1" parent="1" source="hHR6AVDcYujb22-yYQ_T-5" target="RFu0Am9u5nQgDgnjEsIO-3">
          <mxGeometry relative="1" as="geometry" />
        </mxCell>
        <mxCell id="hHR6AVDcYujb22-yYQ_T-5" value="" style="whiteSpace=wrap;html=1;aspect=fixed;" parent="1" vertex="1">
          <mxGeometry x="320" y="120" width="80" height="80" as="geometry" />
        </mxCell>
        <mxCell id="hHR6AVDcYujb22-yYQ_T-7" value="" style="endArrow=none;html=1;" parent="1" edge="1">
          <mxGeometry width="50" height="50" relative="1" as="geometry">
            <mxPoint x="348" y="175" as="sourcePoint" />
            <mxPoint x="372" y="145" as="targetPoint" />
          </mxGeometry>
        </mxCell>
        <mxCell id="hHR6AVDcYujb22-yYQ_T-8" value="" style="endArrow=none;html=1;" parent="1" edge="1">
          <mxGeometry width="50" height="50" relative="1" as="geometry">
            <mxPoint x="372" y="145" as="sourcePoint" />
            <mxPoint x="392" y="145" as="targetPoint" />
          </mxGeometry>
        </mxCell>
        <mxCell id="hHR6AVDcYujb22-yYQ_T-9" value="" style="endArrow=none;html=1;" parent="1" edge="1">
          <mxGeometry width="50" height="50" relative="1" as="geometry">
            <mxPoint x="348" y="175" as="sourcePoint" />
            <mxPoint x="328" y="175" as="targetPoint" />
          </mxGeometry>
        </mxCell>
        <mxCell id="hHR6AVDcYujb22-yYQ_T-10" value="" style="endArrow=classic;html=1;entryX=0;entryY=0.5;entryDx=0;entryDy=0;" parent="1" edge="1">
          <mxGeometry width="50" height="50" relative="1" as="geometry">
            <mxPoint x="280" y="180" as="sourcePoint" />
            <mxPoint x="319.9999999999999" y="180" as="targetPoint" />
          </mxGeometry>
        </mxCell>
        <mxCell id="5HqrGk9MGbXyAHrSEdPO-36" value="$$VrMaxPu$$" style="rounded=0;whiteSpace=wrap;html=1;" parent="1" vertex="1">
          <mxGeometry x="1800" y="-320" width="80" height="80" as="geometry" />
        </mxCell>
        <mxCell id="yuVk0EhnXVRBRO2mFo1Z-7" value="&lt;font style=&quot;font-size: 9px;&quot;&gt;$$IrPu$$&lt;/font&gt;" style="triangle;whiteSpace=wrap;html=1;align=left;" parent="1" vertex="1">
          <mxGeometry x="-300" y="-520" width="60" height="80" as="geometry" />
        </mxCell>
        <mxCell id="Ko5TodTb07DRkb56tdF9-3" value="" style="whiteSpace=wrap;html=1;aspect=fixed;" parent="1" vertex="1">
          <mxGeometry x="1560" y="120" width="80" height="80" as="geometry" />
        </mxCell>
        <mxCell id="Ko5TodTb07DRkb56tdF9-4" value="" style="endArrow=none;html=1;" parent="1" edge="1">
          <mxGeometry width="50" height="50" relative="1" as="geometry">
            <mxPoint x="1588" y="175" as="sourcePoint" />
            <mxPoint x="1612" y="145" as="targetPoint" />
          </mxGeometry>
        </mxCell>
        <mxCell id="Ko5TodTb07DRkb56tdF9-5" value="" style="endArrow=none;html=1;" parent="1" edge="1">
          <mxGeometry width="50" height="50" relative="1" as="geometry">
            <mxPoint x="1612" y="145" as="sourcePoint" />
            <mxPoint x="1632" y="145" as="targetPoint" />
          </mxGeometry>
        </mxCell>
        <mxCell id="Ko5TodTb07DRkb56tdF9-6" value="&lt;font style=&quot;font-size: 9px;&quot;&gt;$$VrMaxPu$$&lt;/font&gt;" style="text;html=1;strokeColor=none;fillColor=none;align=center;verticalAlign=middle;whiteSpace=wrap;rounded=0;fontSize=15;" parent="1" vertex="1">
          <mxGeometry x="1604" y="90" width="60" height="30" as="geometry" />
        </mxCell>
        <mxCell id="Ko5TodTb07DRkb56tdF9-7" value="" style="endArrow=none;html=1;" parent="1" edge="1">
          <mxGeometry width="50" height="50" relative="1" as="geometry">
            <mxPoint x="1588" y="175" as="sourcePoint" />
            <mxPoint x="1568" y="175" as="targetPoint" />
          </mxGeometry>
        </mxCell>
        <mxCell id="Ko5TodTb07DRkb56tdF9-8" value="&lt;font style=&quot;font-size: 9px;&quot;&gt;$$VrMinPu$$&lt;/font&gt;" style="text;html=1;strokeColor=none;fillColor=none;align=center;verticalAlign=middle;whiteSpace=wrap;rounded=0;fontSize=15;" parent="1" vertex="1">
          <mxGeometry x="1540" y="200" width="60" height="30" as="geometry" />
        </mxCell>
        <mxCell id="Ko5TodTb07DRkb56tdF9-10" value="$$&amp;gt;=$$" style="whiteSpace=wrap;html=1;aspect=fixed;" parent="1" vertex="1">
          <mxGeometry x="520" y="-80" width="80" height="80" as="geometry" />
        </mxCell>
        <mxCell id="RFu0Am9u5nQgDgnjEsIO-60" value="" style="edgeStyle=orthogonalEdgeStyle;rounded=0;orthogonalLoop=1;jettySize=auto;html=1;" edge="1" parent="1" source="Ko5TodTb07DRkb56tdF9-11" target="GCO7xrDp6TmdYOZJOnFd-99">
          <mxGeometry relative="1" as="geometry" />
        </mxCell>
        <mxCell id="Ko5TodTb07DRkb56tdF9-11" value="$$\frac{1+tC2*s}{1+tB2*s}$$" style="whiteSpace=wrap;html=1;aspect=fixed;" parent="1" vertex="1">
          <mxGeometry x="960" y="-200" width="80" height="80" as="geometry" />
        </mxCell>
        <mxCell id="Ko5TodTb07DRkb56tdF9-25" value="" style="edgeStyle=orthogonalEdgeStyle;rounded=0;orthogonalLoop=1;jettySize=auto;html=1;" parent="1" source="Ko5TodTb07DRkb56tdF9-18" target="pcb0Rrb9AqgbB0oOaPCg-23" edge="1">
          <mxGeometry relative="1" as="geometry" />
        </mxCell>
        <mxCell id="Ko5TodTb07DRkb56tdF9-18" value="" style="whiteSpace=wrap;html=1;aspect=fixed;" parent="1" vertex="1">
          <mxGeometry x="1960" y="120" width="80" height="80" as="geometry" />
        </mxCell>
        <mxCell id="Ko5TodTb07DRkb56tdF9-19" value="" style="endArrow=none;html=1;" parent="1" edge="1">
          <mxGeometry width="50" height="50" relative="1" as="geometry">
            <mxPoint x="1988" y="175" as="sourcePoint" />
            <mxPoint x="2012" y="145" as="targetPoint" />
          </mxGeometry>
        </mxCell>
        <mxCell id="Ko5TodTb07DRkb56tdF9-20" value="" style="endArrow=none;html=1;" parent="1" edge="1">
          <mxGeometry width="50" height="50" relative="1" as="geometry">
            <mxPoint x="2012" y="145" as="sourcePoint" />
            <mxPoint x="2032" y="145" as="targetPoint" />
          </mxGeometry>
        </mxCell>
        <mxCell id="Ko5TodTb07DRkb56tdF9-21" value="" style="endArrow=none;html=1;" parent="1" edge="1">
          <mxGeometry width="50" height="50" relative="1" as="geometry">
            <mxPoint x="1988" y="175" as="sourcePoint" />
            <mxPoint x="1968" y="175" as="targetPoint" />
          </mxGeometry>
        </mxCell>
        <mxCell id="Ko5TodTb07DRkb56tdF9-36" value="$$VrMinPu$$" style="rounded=0;whiteSpace=wrap;html=1;" parent="1" vertex="1">
          <mxGeometry x="1790" y="399" width="80" height="80" as="geometry" />
        </mxCell>
        <mxCell id="Ko5TodTb07DRkb56tdF9-37" value="$$Kc$$" style="rounded=0;whiteSpace=wrap;html=1;" parent="1" vertex="1">
          <mxGeometry x="960" y="-520" width="80" height="80" as="geometry" />
        </mxCell>
        <mxCell id="Ko5TodTb07DRkb56tdF9-38" value="" style="endArrow=none;dashed=1;html=1;dashPattern=1 3;strokeWidth=2;rounded=0;exitX=1;exitY=0.5;exitDx=0;exitDy=0;entryX=0;entryY=0.5;entryDx=0;entryDy=0;" parent="1" source="GCO7xrDp6TmdYOZJOnFd-2" target="eN8Zq5XajQ-hrPbZrUXH-3" edge="1">
          <mxGeometry width="50" height="50" relative="1" as="geometry">
            <mxPoint x="140" y="-60" as="sourcePoint" />
            <mxPoint x="190" y="-110" as="targetPoint" />
          </mxGeometry>
        </mxCell>
        <mxCell id="Ko5TodTb07DRkb56tdF9-39" value="" style="endArrow=none;dashed=1;html=1;dashPattern=1 3;strokeWidth=2;rounded=0;exitX=1;exitY=0.5;exitDx=0;exitDy=0;entryX=0;entryY=0.5;entryDx=0;entryDy=0;" parent="1" source="GCO7xrDp6TmdYOZJOnFd-2" target="Ko5TodTb07DRkb56tdF9-36" edge="1">
          <mxGeometry width="50" height="50" relative="1" as="geometry">
            <mxPoint x="180" y="-60" as="sourcePoint" />
            <mxPoint x="230" y="-110" as="targetPoint" />
            <Array as="points">
              <mxPoint x="-160" y="80" />
              <mxPoint x="-160" y="439" />
            </Array>
          </mxGeometry>
        </mxCell>
        <mxCell id="Ko5TodTb07DRkb56tdF9-40" value="" style="endArrow=none;dashed=1;html=1;dashPattern=1 3;strokeWidth=2;rounded=0;exitX=1;exitY=0.5;exitDx=0;exitDy=0;entryX=0;entryY=0.5;entryDx=0;entryDy=0;" parent="1" source="GCO7xrDp6TmdYOZJOnFd-2" target="5HqrGk9MGbXyAHrSEdPO-36" edge="1">
          <mxGeometry width="50" height="50" relative="1" as="geometry">
            <mxPoint x="-50" y="220" as="sourcePoint" />
            <mxPoint x="550" y="10" as="targetPoint" />
            <Array as="points">
              <mxPoint x="-160" y="80" />
              <mxPoint x="-160" y="-280" />
            </Array>
          </mxGeometry>
        </mxCell>
        <mxCell id="Ko5TodTb07DRkb56tdF9-51" value="" style="endArrow=classic;html=1;rounded=0;exitX=1;exitY=0.5;exitDx=0;exitDy=0;entryX=0;entryY=0.5;entryDx=0;entryDy=0;" parent="1" source="yuVk0EhnXVRBRO2mFo1Z-7" target="Ko5TodTb07DRkb56tdF9-37" edge="1">
          <mxGeometry width="50" height="50" relative="1" as="geometry">
            <mxPoint x="310" y="40" as="sourcePoint" />
            <mxPoint x="720" y="-180" as="targetPoint" />
            <Array as="points" />
          </mxGeometry>
        </mxCell>
        <mxCell id="Ko5TodTb07DRkb56tdF9-54" value="" style="endArrow=classic;html=1;rounded=0;exitX=1;exitY=0.5;exitDx=0;exitDy=0;entryX=0.5;entryY=0;entryDx=0;entryDy=0;" parent="1" source="Ko5TodTb07DRkb56tdF9-37" target="eN8Zq5XajQ-hrPbZrUXH-25" edge="1">
          <mxGeometry width="50" height="50" relative="1" as="geometry">
            <mxPoint x="690" y="40" as="sourcePoint" />
            <mxPoint x="740" y="-10" as="targetPoint" />
            <Array as="points">
              <mxPoint x="1720" y="-480" />
            </Array>
          </mxGeometry>
        </mxCell>
        <mxCell id="Ko5TodTb07DRkb56tdF9-57" value="" style="endArrow=classic;html=1;rounded=0;exitX=1;exitY=0.5;exitDx=0;exitDy=0;entryX=0;entryY=0.25;entryDx=0;entryDy=0;" parent="1" source="5HqrGk9MGbXyAHrSEdPO-36" target="Ko5TodTb07DRkb56tdF9-18" edge="1">
          <mxGeometry width="50" height="50" relative="1" as="geometry">
            <mxPoint x="1190" y="40" as="sourcePoint" />
            <mxPoint x="1760" y="-140" as="targetPoint" />
            <Array as="points">
              <mxPoint x="1920" y="-280" />
              <mxPoint x="1920" y="140" />
            </Array>
          </mxGeometry>
        </mxCell>
        <mxCell id="Ko5TodTb07DRkb56tdF9-59" value="" style="endArrow=classic;html=1;rounded=0;exitX=1;exitY=0.5;exitDx=0;exitDy=0;entryX=0;entryY=0.75;entryDx=0;entryDy=0;" parent="1" source="Ko5TodTb07DRkb56tdF9-36" target="Ko5TodTb07DRkb56tdF9-18" edge="1">
          <mxGeometry width="50" height="50" relative="1" as="geometry">
            <mxPoint x="1830" y="40" as="sourcePoint" />
            <mxPoint x="1880" y="-10" as="targetPoint" />
            <Array as="points">
              <mxPoint x="1920" y="439" />
              <mxPoint x="1920" y="180" />
            </Array>
          </mxGeometry>
        </mxCell>
        <mxCell id="zIcmA1sIpYeBf_Q3gmNu-1" value="&lt;font style=&quot;font-size: 9px;&quot;&gt;$$USclUelPu$$&lt;/font&gt;" style="triangle;whiteSpace=wrap;html=1;align=left;" parent="1" vertex="1">
          <mxGeometry x="-300" y="440" width="60" height="80" as="geometry" />
        </mxCell>
        <mxCell id="zIcmA1sIpYeBf_Q3gmNu-2" value="&lt;font style=&quot;font-size: 9px;&quot;&gt;$$USclOelPu$$&lt;/font&gt;" style="triangle;whiteSpace=wrap;html=1;align=left;" parent="1" vertex="1">
          <mxGeometry x="-300" y="-400" width="60" height="80" as="geometry" />
        </mxCell>
        <mxCell id="RFu0Am9u5nQgDgnjEsIO-15" value="" style="edgeStyle=orthogonalEdgeStyle;rounded=0;orthogonalLoop=1;jettySize=auto;html=1;" edge="1" parent="1" source="RFu0Am9u5nQgDgnjEsIO-1" target="Ko5TodTb07DRkb56tdF9-18">
          <mxGeometry relative="1" as="geometry" />
        </mxCell>
        <mxCell id="RFu0Am9u5nQgDgnjEsIO-1" value="$$\frac{1}{1+t1*s}$$" style="rounded=0;whiteSpace=wrap;html=1;" vertex="1" parent="1">
          <mxGeometry x="1800" y="120" width="80" height="80" as="geometry" />
        </mxCell>
        <mxCell id="RFu0Am9u5nQgDgnjEsIO-3" value="" style="whiteSpace=wrap;html=1;aspect=fixed;" vertex="1" parent="1">
          <mxGeometry x="520" y="120" width="80" height="80" as="geometry" />
        </mxCell>
        <mxCell id="RFu0Am9u5nQgDgnjEsIO-4" value="" style="endArrow=none;html=1;" edge="1" parent="1">
          <mxGeometry width="50" height="50" relative="1" as="geometry">
            <mxPoint x="548" y="175" as="sourcePoint" />
            <mxPoint x="572" y="145" as="targetPoint" />
          </mxGeometry>
        </mxCell>
        <mxCell id="RFu0Am9u5nQgDgnjEsIO-5" value="" style="endArrow=none;html=1;" edge="1" parent="1">
          <mxGeometry width="50" height="50" relative="1" as="geometry">
            <mxPoint x="572" y="145" as="sourcePoint" />
            <mxPoint x="592" y="145" as="targetPoint" />
          </mxGeometry>
        </mxCell>
        <mxCell id="RFu0Am9u5nQgDgnjEsIO-6" value="" style="endArrow=none;html=1;" edge="1" parent="1">
          <mxGeometry width="50" height="50" relative="1" as="geometry">
            <mxPoint x="548" y="175" as="sourcePoint" />
            <mxPoint x="528" y="175" as="targetPoint" />
          </mxGeometry>
        </mxCell>
        <mxCell id="RFu0Am9u5nQgDgnjEsIO-8" value="" style="endArrow=classic;html=1;entryX=0;entryY=0.5;entryDx=0;entryDy=0;" edge="1" parent="1">
          <mxGeometry width="50" height="50" relative="1" as="geometry">
            <mxPoint x="480" y="140" as="sourcePoint" />
            <mxPoint x="519.9999999999999" y="140" as="targetPoint" />
          </mxGeometry>
        </mxCell>
        <mxCell id="RFu0Am9u5nQgDgnjEsIO-14" value="" style="edgeStyle=orthogonalEdgeStyle;rounded=0;orthogonalLoop=1;jettySize=auto;html=1;" edge="1" parent="1" source="RFu0Am9u5nQgDgnjEsIO-10" target="RFu0Am9u5nQgDgnjEsIO-11">
          <mxGeometry relative="1" as="geometry" />
        </mxCell>
        <mxCell id="RFu0Am9u5nQgDgnjEsIO-10" value="&lt;table style=&quot;&quot;&gt;&lt;tbody&gt;&lt;tr&gt;&lt;td&gt;&lt;font style=&quot;font-size: 12px;&quot;&gt;$$+$$&lt;/font&gt;&lt;/td&gt;&lt;/tr&gt;&lt;/tbody&gt;&lt;/table&gt;" style="whiteSpace=wrap;html=1;aspect=fixed;" vertex="1" parent="1">
          <mxGeometry x="680" y="40" width="80" height="80" as="geometry" />
        </mxCell>
        <mxCell id="RFu0Am9u5nQgDgnjEsIO-11" value="$$Kr$$" style="rounded=0;whiteSpace=wrap;html=1;" vertex="1" parent="1">
          <mxGeometry x="800" y="40" width="80" height="80" as="geometry" />
        </mxCell>
        <mxCell id="RFu0Am9u5nQgDgnjEsIO-12" value="" style="endArrow=classic;html=1;rounded=0;exitX=1;exitY=0.5;exitDx=0;exitDy=0;entryX=0;entryY=0.25;entryDx=0;entryDy=0;" edge="1" parent="1" source="eN8Zq5XajQ-hrPbZrUXH-11" target="RFu0Am9u5nQgDgnjEsIO-10">
          <mxGeometry width="50" height="50" relative="1" as="geometry">
            <mxPoint x="150" y="10" as="sourcePoint" />
            <mxPoint x="200" y="-40" as="targetPoint" />
            <Array as="points">
              <mxPoint x="640" y="-120" />
              <mxPoint x="640" y="60" />
            </Array>
          </mxGeometry>
        </mxCell>
        <mxCell id="RFu0Am9u5nQgDgnjEsIO-13" value="" style="endArrow=classic;html=1;rounded=0;exitX=1;exitY=0.5;exitDx=0;exitDy=0;entryX=0;entryY=0.75;entryDx=0;entryDy=0;" edge="1" parent="1" source="RFu0Am9u5nQgDgnjEsIO-3" target="RFu0Am9u5nQgDgnjEsIO-10">
          <mxGeometry width="50" height="50" relative="1" as="geometry">
            <mxPoint x="150" y="10" as="sourcePoint" />
            <mxPoint x="200" y="-40" as="targetPoint" />
            <Array as="points">
              <mxPoint x="640" y="160" />
              <mxPoint x="640" y="100" />
            </Array>
          </mxGeometry>
        </mxCell>
        <mxCell id="RFu0Am9u5nQgDgnjEsIO-16" style="edgeStyle=orthogonalEdgeStyle;rounded=0;orthogonalLoop=1;jettySize=auto;html=1;exitX=0.5;exitY=1;exitDx=0;exitDy=0;" edge="1" parent="1" source="RFu0Am9u5nQgDgnjEsIO-17">
          <mxGeometry relative="1" as="geometry">
            <mxPoint x="1120.2" y="110.20000000000005" as="targetPoint" />
          </mxGeometry>
        </mxCell>
        <mxCell id="RFu0Am9u5nQgDgnjEsIO-17" value="$$\frac{1+tUC1*s}{1+tUB1*s}$$" style="rounded=0;whiteSpace=wrap;html=1;" vertex="1" parent="1">
          <mxGeometry x="1080" y="40" width="80" height="80" as="geometry" />
        </mxCell>
        <mxCell id="RFu0Am9u5nQgDgnjEsIO-18" value="" style="endArrow=none;html=1;exitX=0.5;exitY=0;exitDx=0;exitDy=0;" edge="1" parent="1" source="RFu0Am9u5nQgDgnjEsIO-17">
          <mxGeometry width="50" height="50" relative="1" as="geometry">
            <mxPoint x="1120" y="50" as="sourcePoint" />
            <mxPoint x="1140" y="30" as="targetPoint" />
          </mxGeometry>
        </mxCell>
        <mxCell id="RFu0Am9u5nQgDgnjEsIO-19" value="" style="endArrow=none;html=1;" edge="1" parent="1">
          <mxGeometry width="50" height="50" relative="1" as="geometry">
            <mxPoint x="1140" y="30" as="sourcePoint" />
            <mxPoint x="1160" y="30" as="targetPoint" />
          </mxGeometry>
        </mxCell>
        <mxCell id="RFu0Am9u5nQgDgnjEsIO-20" value="&lt;font style=&quot;font-size: 9px;&quot;&gt;$$VrMaxPu$$&lt;/font&gt;" style="text;html=1;strokeColor=none;fillColor=none;align=center;verticalAlign=middle;whiteSpace=wrap;rounded=0;fontSize=15;" vertex="1" parent="1">
          <mxGeometry x="1124" width="60" height="30" as="geometry" />
        </mxCell>
        <mxCell id="RFu0Am9u5nQgDgnjEsIO-21" value="" style="endArrow=none;html=1;" edge="1" parent="1">
          <mxGeometry width="50" height="50" relative="1" as="geometry">
            <mxPoint x="1081" y="130" as="sourcePoint" />
            <mxPoint x="1061" y="130" as="targetPoint" />
          </mxGeometry>
        </mxCell>
        <mxCell id="RFu0Am9u5nQgDgnjEsIO-22" value="&lt;font style=&quot;font-size: 9px;&quot;&gt;$$VrMinPu$$&lt;/font&gt;" style="text;html=1;strokeColor=none;fillColor=none;align=center;verticalAlign=middle;whiteSpace=wrap;rounded=0;fontSize=15;" vertex="1" parent="1">
          <mxGeometry x="1040" y="126" width="60" height="30" as="geometry" />
        </mxCell>
        <mxCell id="RFu0Am9u5nQgDgnjEsIO-23" value="" style="endArrow=none;html=1;exitX=0.5;exitY=0;exitDx=0;exitDy=0;entryX=0.25;entryY=1;entryDx=0;entryDy=0;" edge="1" parent="1" target="RFu0Am9u5nQgDgnjEsIO-17">
          <mxGeometry width="50" height="50" relative="1" as="geometry">
            <mxPoint x="1081" y="130" as="sourcePoint" />
            <mxPoint x="1101" y="110" as="targetPoint" />
          </mxGeometry>
        </mxCell>
        <mxCell id="RFu0Am9u5nQgDgnjEsIO-61" value="" style="edgeStyle=orthogonalEdgeStyle;rounded=0;orthogonalLoop=1;jettySize=auto;html=1;" edge="1" parent="1" source="RFu0Am9u5nQgDgnjEsIO-24" target="RFu0Am9u5nQgDgnjEsIO-17">
          <mxGeometry relative="1" as="geometry" />
        </mxCell>
        <mxCell id="RFu0Am9u5nQgDgnjEsIO-24" value="$$\frac{1+tUC2*s}{1+tUB2*s}$$" style="whiteSpace=wrap;html=1;aspect=fixed;" vertex="1" parent="1">
          <mxGeometry x="960" y="40" width="80" height="80" as="geometry" />
        </mxCell>
        <mxCell id="RFu0Am9u5nQgDgnjEsIO-25" style="edgeStyle=orthogonalEdgeStyle;rounded=0;orthogonalLoop=1;jettySize=auto;html=1;exitX=0.5;exitY=1;exitDx=0;exitDy=0;" edge="1" parent="1" source="RFu0Am9u5nQgDgnjEsIO-26">
          <mxGeometry relative="1" as="geometry">
            <mxPoint x="1120.2" y="350.20000000000005" as="targetPoint" />
          </mxGeometry>
        </mxCell>
        <mxCell id="RFu0Am9u5nQgDgnjEsIO-26" value="$$\frac{1+tOC1*s}{1+tOB1*s}$$" style="rounded=0;whiteSpace=wrap;html=1;" vertex="1" parent="1">
          <mxGeometry x="1080" y="280" width="80" height="80" as="geometry" />
        </mxCell>
        <mxCell id="RFu0Am9u5nQgDgnjEsIO-27" value="" style="endArrow=none;html=1;exitX=0.5;exitY=0;exitDx=0;exitDy=0;" edge="1" parent="1" source="RFu0Am9u5nQgDgnjEsIO-26">
          <mxGeometry width="50" height="50" relative="1" as="geometry">
            <mxPoint x="1120" y="290" as="sourcePoint" />
            <mxPoint x="1140" y="270" as="targetPoint" />
          </mxGeometry>
        </mxCell>
        <mxCell id="RFu0Am9u5nQgDgnjEsIO-28" value="" style="endArrow=none;html=1;" edge="1" parent="1">
          <mxGeometry width="50" height="50" relative="1" as="geometry">
            <mxPoint x="1140" y="270" as="sourcePoint" />
            <mxPoint x="1160" y="270" as="targetPoint" />
          </mxGeometry>
        </mxCell>
        <mxCell id="RFu0Am9u5nQgDgnjEsIO-29" value="&lt;font style=&quot;font-size: 9px;&quot;&gt;$$VrMaxPu$$&lt;/font&gt;" style="text;html=1;strokeColor=none;fillColor=none;align=center;verticalAlign=middle;whiteSpace=wrap;rounded=0;fontSize=15;" vertex="1" parent="1">
          <mxGeometry x="1124" y="240" width="60" height="30" as="geometry" />
        </mxCell>
        <mxCell id="RFu0Am9u5nQgDgnjEsIO-30" value="" style="endArrow=none;html=1;" edge="1" parent="1">
          <mxGeometry width="50" height="50" relative="1" as="geometry">
            <mxPoint x="1081" y="370" as="sourcePoint" />
            <mxPoint x="1061" y="370" as="targetPoint" />
          </mxGeometry>
        </mxCell>
        <mxCell id="RFu0Am9u5nQgDgnjEsIO-31" value="&lt;font style=&quot;font-size: 9px;&quot;&gt;$$VrMinPu$$&lt;/font&gt;" style="text;html=1;strokeColor=none;fillColor=none;align=center;verticalAlign=middle;whiteSpace=wrap;rounded=0;fontSize=15;" vertex="1" parent="1">
          <mxGeometry x="1040" y="366" width="60" height="30" as="geometry" />
        </mxCell>
        <mxCell id="RFu0Am9u5nQgDgnjEsIO-32" value="" style="endArrow=none;html=1;exitX=0.5;exitY=0;exitDx=0;exitDy=0;entryX=0.25;entryY=1;entryDx=0;entryDy=0;" edge="1" parent="1" target="RFu0Am9u5nQgDgnjEsIO-26">
          <mxGeometry width="50" height="50" relative="1" as="geometry">
            <mxPoint x="1081" y="370" as="sourcePoint" />
            <mxPoint x="1101" y="350" as="targetPoint" />
          </mxGeometry>
        </mxCell>
        <mxCell id="RFu0Am9u5nQgDgnjEsIO-62" value="" style="edgeStyle=orthogonalEdgeStyle;rounded=0;orthogonalLoop=1;jettySize=auto;html=1;" edge="1" parent="1" source="RFu0Am9u5nQgDgnjEsIO-33" target="RFu0Am9u5nQgDgnjEsIO-26">
          <mxGeometry relative="1" as="geometry" />
        </mxCell>
        <mxCell id="RFu0Am9u5nQgDgnjEsIO-33" value="$$\frac{1+tOC2*s}{1+tOB2*s}$$" style="whiteSpace=wrap;html=1;aspect=fixed;" vertex="1" parent="1">
          <mxGeometry x="960" y="280" width="80" height="80" as="geometry" />
        </mxCell>
        <mxCell id="RFu0Am9u5nQgDgnjEsIO-34" value="" style="whiteSpace=wrap;html=1;aspect=fixed;fontStyle=1" vertex="1" parent="1">
          <mxGeometry x="1239" y="-80" width="80" height="80" as="geometry" />
        </mxCell>
        <mxCell id="RFu0Am9u5nQgDgnjEsIO-35" value="" style="endArrow=none;html=1;startArrow=none;fontStyle=1" edge="1" parent="1" source="RFu0Am9u5nQgDgnjEsIO-43">
          <mxGeometry width="50" height="50" relative="1" as="geometry">
            <mxPoint x="1299" y="-40" as="sourcePoint" />
            <mxPoint x="1319" y="-40" as="targetPoint" />
          </mxGeometry>
        </mxCell>
        <mxCell id="RFu0Am9u5nQgDgnjEsIO-36" value="" style="endArrow=none;html=1;fontStyle=1" edge="1" parent="1">
          <mxGeometry width="50" height="50" relative="1" as="geometry">
            <mxPoint x="1230" y="-60" as="sourcePoint" />
            <mxPoint x="1260" y="-60" as="targetPoint" />
          </mxGeometry>
        </mxCell>
        <mxCell id="RFu0Am9u5nQgDgnjEsIO-37" value="" style="endArrow=none;html=1;fontStyle=1" edge="1" parent="1">
          <mxGeometry width="50" height="50" relative="1" as="geometry">
            <mxPoint x="1229" y="-40.200000000000045" as="sourcePoint" />
            <mxPoint x="1259" y="-40.200000000000045" as="targetPoint" />
          </mxGeometry>
        </mxCell>
        <mxCell id="RFu0Am9u5nQgDgnjEsIO-38" value="" style="endArrow=none;html=1;fontStyle=1" edge="1" parent="1">
          <mxGeometry width="50" height="50" relative="1" as="geometry">
            <mxPoint x="1229" y="-20" as="sourcePoint" />
            <mxPoint x="1259" y="-20" as="targetPoint" />
          </mxGeometry>
        </mxCell>
        <mxCell id="RFu0Am9u5nQgDgnjEsIO-39" value="" style="shape=waypoint;sketch=0;fillStyle=solid;size=4;pointerEvents=1;points=[];fillColor=none;resizable=0;rotatable=0;perimeter=centerPerimeter;snapToPoint=1;fontStyle=1" vertex="1" parent="1">
          <mxGeometry x="1249" y="-70" width="20" height="20" as="geometry" />
        </mxCell>
        <mxCell id="RFu0Am9u5nQgDgnjEsIO-40" value="" style="shape=waypoint;sketch=0;fillStyle=solid;size=4;pointerEvents=1;points=[];fillColor=none;resizable=0;rotatable=0;perimeter=centerPerimeter;snapToPoint=1;fontStyle=1" vertex="1" parent="1">
          <mxGeometry x="1249" y="-50" width="20" height="20" as="geometry" />
        </mxCell>
        <mxCell id="RFu0Am9u5nQgDgnjEsIO-41" value="" style="shape=waypoint;sketch=0;fillStyle=solid;size=4;pointerEvents=1;points=[];fillColor=none;resizable=0;rotatable=0;perimeter=centerPerimeter;snapToPoint=1;fontStyle=1" vertex="1" parent="1">
          <mxGeometry x="1249" y="-30" width="20" height="20" as="geometry" />
        </mxCell>
        <mxCell id="RFu0Am9u5nQgDgnjEsIO-42" value="" style="endArrow=none;html=1;fontStyle=1" edge="1" parent="1" target="RFu0Am9u5nQgDgnjEsIO-43">
          <mxGeometry width="50" height="50" relative="1" as="geometry">
            <mxPoint x="1299" y="-40" as="sourcePoint" />
            <mxPoint x="1319" y="-40" as="targetPoint" />
          </mxGeometry>
        </mxCell>
        <mxCell id="RFu0Am9u5nQgDgnjEsIO-43" value="" style="shape=waypoint;sketch=0;fillStyle=solid;size=4;pointerEvents=1;points=[];fillColor=none;resizable=0;rotatable=0;perimeter=centerPerimeter;snapToPoint=1;fontStyle=1" vertex="1" parent="1">
          <mxGeometry x="1290" y="-50" width="20" height="20" as="geometry" />
        </mxCell>
        <mxCell id="RFu0Am9u5nQgDgnjEsIO-44" value="" style="endArrow=none;html=1;fontStyle=1" edge="1" parent="1">
          <mxGeometry width="50" height="50" relative="1" as="geometry">
            <mxPoint x="1259" y="-30" as="sourcePoint" />
            <mxPoint x="1299" y="-40" as="targetPoint" />
          </mxGeometry>
        </mxCell>
        <mxCell id="RFu0Am9u5nQgDgnjEsIO-46" value="" style="whiteSpace=wrap;html=1;aspect=fixed;" vertex="1" parent="1">
          <mxGeometry x="1400" y="160" width="80" height="80" as="geometry" />
        </mxCell>
        <mxCell id="RFu0Am9u5nQgDgnjEsIO-47" value="" style="endArrow=none;html=1;startArrow=none;" edge="1" parent="1" source="RFu0Am9u5nQgDgnjEsIO-55">
          <mxGeometry width="50" height="50" relative="1" as="geometry">
            <mxPoint x="1460" y="200" as="sourcePoint" />
            <mxPoint x="1480" y="200" as="targetPoint" />
          </mxGeometry>
        </mxCell>
        <mxCell id="RFu0Am9u5nQgDgnjEsIO-48" value="" style="endArrow=none;html=1;" edge="1" parent="1">
          <mxGeometry width="50" height="50" relative="1" as="geometry">
            <mxPoint x="1391" y="180" as="sourcePoint" />
            <mxPoint x="1421" y="180" as="targetPoint" />
          </mxGeometry>
        </mxCell>
        <mxCell id="RFu0Am9u5nQgDgnjEsIO-49" value="" style="endArrow=none;html=1;" edge="1" parent="1">
          <mxGeometry width="50" height="50" relative="1" as="geometry">
            <mxPoint x="1390" y="199.79999999999995" as="sourcePoint" />
            <mxPoint x="1420" y="199.79999999999995" as="targetPoint" />
          </mxGeometry>
        </mxCell>
        <mxCell id="RFu0Am9u5nQgDgnjEsIO-50" value="" style="endArrow=none;html=1;" edge="1" parent="1">
          <mxGeometry width="50" height="50" relative="1" as="geometry">
            <mxPoint x="1390" y="220" as="sourcePoint" />
            <mxPoint x="1420" y="220" as="targetPoint" />
          </mxGeometry>
        </mxCell>
        <mxCell id="RFu0Am9u5nQgDgnjEsIO-51" value="" style="shape=waypoint;sketch=0;fillStyle=solid;size=4;pointerEvents=1;points=[];fillColor=none;resizable=0;rotatable=0;perimeter=centerPerimeter;snapToPoint=1;" vertex="1" parent="1">
          <mxGeometry x="1410" y="170" width="20" height="20" as="geometry" />
        </mxCell>
        <mxCell id="RFu0Am9u5nQgDgnjEsIO-52" value="" style="shape=waypoint;sketch=0;fillStyle=solid;size=4;pointerEvents=1;points=[];fillColor=none;resizable=0;rotatable=0;perimeter=centerPerimeter;snapToPoint=1;" vertex="1" parent="1">
          <mxGeometry x="1410" y="190" width="20" height="20" as="geometry" />
        </mxCell>
        <mxCell id="RFu0Am9u5nQgDgnjEsIO-53" value="" style="shape=waypoint;sketch=0;fillStyle=solid;size=4;pointerEvents=1;points=[];fillColor=none;resizable=0;rotatable=0;perimeter=centerPerimeter;snapToPoint=1;" vertex="1" parent="1">
          <mxGeometry x="1410" y="210" width="20" height="20" as="geometry" />
        </mxCell>
        <mxCell id="RFu0Am9u5nQgDgnjEsIO-54" value="" style="endArrow=none;html=1;" edge="1" parent="1" target="RFu0Am9u5nQgDgnjEsIO-55">
          <mxGeometry width="50" height="50" relative="1" as="geometry">
            <mxPoint x="1460" y="200" as="sourcePoint" />
            <mxPoint x="1480" y="200" as="targetPoint" />
          </mxGeometry>
        </mxCell>
        <mxCell id="RFu0Am9u5nQgDgnjEsIO-55" value="" style="shape=waypoint;sketch=0;fillStyle=solid;size=4;pointerEvents=1;points=[];fillColor=none;resizable=0;rotatable=0;perimeter=centerPerimeter;snapToPoint=1;" vertex="1" parent="1">
          <mxGeometry x="1451" y="190" width="20" height="20" as="geometry" />
        </mxCell>
        <mxCell id="RFu0Am9u5nQgDgnjEsIO-56" value="" style="endArrow=none;html=1;" edge="1" parent="1">
          <mxGeometry width="50" height="50" relative="1" as="geometry">
            <mxPoint x="1420" y="210" as="sourcePoint" />
            <mxPoint x="1460" y="200" as="targetPoint" />
          </mxGeometry>
        </mxCell>
        <mxCell id="RFu0Am9u5nQgDgnjEsIO-57" value="" style="endArrow=classic;html=1;rounded=0;exitX=1;exitY=0.5;exitDx=0;exitDy=0;entryX=0;entryY=0.5;entryDx=0;entryDy=0;" edge="1" parent="1" source="RFu0Am9u5nQgDgnjEsIO-11" target="Ko5TodTb07DRkb56tdF9-11">
          <mxGeometry width="50" height="50" relative="1" as="geometry">
            <mxPoint x="1060" y="-110" as="sourcePoint" />
            <mxPoint x="1110" y="-160" as="targetPoint" />
            <Array as="points">
              <mxPoint x="920" y="80" />
              <mxPoint x="920" y="-160" />
            </Array>
          </mxGeometry>
        </mxCell>
        <mxCell id="RFu0Am9u5nQgDgnjEsIO-58" value="" style="endArrow=classic;html=1;rounded=0;exitX=1;exitY=0.5;exitDx=0;exitDy=0;entryX=0;entryY=0.5;entryDx=0;entryDy=0;" edge="1" parent="1" source="RFu0Am9u5nQgDgnjEsIO-11" target="RFu0Am9u5nQgDgnjEsIO-24">
          <mxGeometry width="50" height="50" relative="1" as="geometry">
            <mxPoint x="1060" y="-110" as="sourcePoint" />
            <mxPoint x="1110" y="-160" as="targetPoint" />
          </mxGeometry>
        </mxCell>
        <mxCell id="RFu0Am9u5nQgDgnjEsIO-59" value="" style="endArrow=classic;html=1;rounded=0;exitX=1;exitY=0.5;exitDx=0;exitDy=0;entryX=0;entryY=0.5;entryDx=0;entryDy=0;" edge="1" parent="1" source="RFu0Am9u5nQgDgnjEsIO-11" target="RFu0Am9u5nQgDgnjEsIO-33">
          <mxGeometry width="50" height="50" relative="1" as="geometry">
            <mxPoint x="1060" y="-110" as="sourcePoint" />
            <mxPoint x="1110" y="-160" as="targetPoint" />
            <Array as="points">
              <mxPoint x="920" y="80" />
              <mxPoint x="920" y="320" />
            </Array>
          </mxGeometry>
        </mxCell>
        <mxCell id="RFu0Am9u5nQgDgnjEsIO-63" value="" style="endArrow=classic;html=1;rounded=0;exitX=1;exitY=0.5;exitDx=0;exitDy=0;entryX=0.283;entryY=0.633;entryDx=0;entryDy=0;entryPerimeter=0;" edge="1" parent="1" source="GCO7xrDp6TmdYOZJOnFd-99" target="RFu0Am9u5nQgDgnjEsIO-39">
          <mxGeometry width="50" height="50" relative="1" as="geometry">
            <mxPoint x="1060" y="-110" as="sourcePoint" />
            <mxPoint x="1110" y="-160" as="targetPoint" />
            <Array as="points">
              <mxPoint x="1200" y="-160" />
              <mxPoint x="1200" y="-60" />
            </Array>
          </mxGeometry>
        </mxCell>
        <mxCell id="RFu0Am9u5nQgDgnjEsIO-64" value="" style="endArrow=classic;html=1;rounded=0;exitX=1;exitY=0.5;exitDx=0;exitDy=0;entryX=0.217;entryY=0.567;entryDx=0;entryDy=0;entryPerimeter=0;" edge="1" parent="1" source="RFu0Am9u5nQgDgnjEsIO-17" target="RFu0Am9u5nQgDgnjEsIO-41">
          <mxGeometry width="50" height="50" relative="1" as="geometry">
            <mxPoint x="1060" y="-110" as="sourcePoint" />
            <mxPoint x="1110" y="-160" as="targetPoint" />
            <Array as="points">
              <mxPoint x="1200" y="80" />
              <mxPoint x="1200" y="-20" />
            </Array>
          </mxGeometry>
        </mxCell>
        <mxCell id="RFu0Am9u5nQgDgnjEsIO-65" value="" style="endArrow=classic;html=1;rounded=0;exitX=1;exitY=0.5;exitDx=0;exitDy=0;entryX=0.5;entryY=0.167;entryDx=0;entryDy=0;entryPerimeter=0;" edge="1" parent="1" source="RFu0Am9u5nQgDgnjEsIO-34" target="RFu0Am9u5nQgDgnjEsIO-51">
          <mxGeometry width="50" height="50" relative="1" as="geometry">
            <mxPoint x="1060" y="-110" as="sourcePoint" />
            <mxPoint x="1110" y="-160" as="targetPoint" />
            <Array as="points">
              <mxPoint x="1360" y="-40" />
              <mxPoint x="1360" y="180" />
            </Array>
          </mxGeometry>
        </mxCell>
        <mxCell id="RFu0Am9u5nQgDgnjEsIO-66" value="" style="endArrow=classic;html=1;rounded=0;entryX=0.433;entryY=1.233;entryDx=0;entryDy=0;entryPerimeter=0;exitX=1;exitY=0.5;exitDx=0;exitDy=0;" edge="1" parent="1" source="RFu0Am9u5nQgDgnjEsIO-26" target="RFu0Am9u5nQgDgnjEsIO-53">
          <mxGeometry width="50" height="50" relative="1" as="geometry">
            <mxPoint x="1060" y="-110" as="sourcePoint" />
            <mxPoint x="1110" y="-160" as="targetPoint" />
            <Array as="points">
              <mxPoint x="1360" y="320" />
              <mxPoint x="1360" y="220" />
            </Array>
          </mxGeometry>
        </mxCell>
        <mxCell id="RFu0Am9u5nQgDgnjEsIO-68" value="" style="endArrow=classic;html=1;rounded=0;exitX=1;exitY=0.5;exitDx=0;exitDy=0;entryX=0;entryY=0.5;entryDx=0;entryDy=0;" edge="1" parent="1" source="RFu0Am9u5nQgDgnjEsIO-46" target="Ko5TodTb07DRkb56tdF9-3">
          <mxGeometry width="50" height="50" relative="1" as="geometry">
            <mxPoint x="1060" y="-110" as="sourcePoint" />
            <mxPoint x="1110" y="-160" as="targetPoint" />
            <Array as="points">
              <mxPoint x="1520" y="200" />
              <mxPoint x="1520" y="160" />
            </Array>
          </mxGeometry>
        </mxCell>
        <mxCell id="RFu0Am9u5nQgDgnjEsIO-70" value="" style="endArrow=classic;html=1;rounded=0;exitX=1;exitY=0.5;exitDx=0;exitDy=0;entryX=0;entryY=0.5;entryDx=0;entryDy=0;" edge="1" parent="1" source="Ko5TodTb07DRkb56tdF9-3" target="eN8Zq5XajQ-hrPbZrUXH-25">
          <mxGeometry width="50" height="50" relative="1" as="geometry">
            <mxPoint x="1050" y="-120" as="sourcePoint" />
            <mxPoint x="1100" y="-170" as="targetPoint" />
          </mxGeometry>
        </mxCell>
        <mxCell id="RFu0Am9u5nQgDgnjEsIO-72" value="$$&amp;gt;=$$" style="whiteSpace=wrap;html=1;aspect=fixed;" vertex="1" parent="1">
          <mxGeometry x="680" y="160.5" width="80" height="80" as="geometry" />
        </mxCell>
        <mxCell id="RFu0Am9u5nQgDgnjEsIO-73" value="" style="endArrow=classic;html=1;rounded=0;exitX=1;exitY=0.5;exitDx=0;exitDy=0;entryX=0;entryY=0.5;entryDx=0;entryDy=0;" edge="1" parent="1" source="RFu0Am9u5nQgDgnjEsIO-3" target="RFu0Am9u5nQgDgnjEsIO-72">
          <mxGeometry width="50" height="50" relative="1" as="geometry">
            <mxPoint x="550" y="40" as="sourcePoint" />
            <mxPoint x="600" y="-10" as="targetPoint" />
            <Array as="points">
              <mxPoint x="640" y="160" />
              <mxPoint x="640" y="200" />
            </Array>
          </mxGeometry>
        </mxCell>
        <mxCell id="RFu0Am9u5nQgDgnjEsIO-74" value="" style="endArrow=classic;html=1;rounded=0;exitX=1;exitY=0.5;exitDx=0;exitDy=0;entryX=0;entryY=0.75;entryDx=0;entryDy=0;" edge="1" parent="1" source="hHR6AVDcYujb22-yYQ_T-5" target="RFu0Am9u5nQgDgnjEsIO-72">
          <mxGeometry width="50" height="50" relative="1" as="geometry">
            <mxPoint x="550" y="40" as="sourcePoint" />
            <mxPoint x="600" y="-10" as="targetPoint" />
            <Array as="points">
              <mxPoint x="440" y="160" />
              <mxPoint x="440" y="220" />
            </Array>
          </mxGeometry>
        </mxCell>
        <mxCell id="RFu0Am9u5nQgDgnjEsIO-75" value="" style="endArrow=classic;html=1;rounded=0;exitX=1;exitY=0.5;exitDx=0;exitDy=0;entryX=0;entryY=0.5;entryDx=0;entryDy=0;" edge="1" parent="1" source="GCO7xrDp6TmdYOZJOnFd-120" target="Ko5TodTb07DRkb56tdF9-10">
          <mxGeometry width="50" height="50" relative="1" as="geometry">
            <mxPoint x="550" y="40" as="sourcePoint" />
            <mxPoint x="600" y="-10" as="targetPoint" />
            <Array as="points">
              <mxPoint x="280" y="160" />
              <mxPoint x="280" y="-40" />
            </Array>
          </mxGeometry>
        </mxCell>
        <mxCell id="RFu0Am9u5nQgDgnjEsIO-76" value="" style="endArrow=classic;html=1;rounded=0;exitX=1;exitY=0.5;exitDx=0;exitDy=0;entryX=0;entryY=0.75;entryDx=0;entryDy=0;" edge="1" parent="1" source="hHR6AVDcYujb22-yYQ_T-5" target="Ko5TodTb07DRkb56tdF9-10">
          <mxGeometry width="50" height="50" relative="1" as="geometry">
            <mxPoint x="550" y="40" as="sourcePoint" />
            <mxPoint x="600" y="-10" as="targetPoint" />
            <Array as="points">
              <mxPoint x="440" y="160" />
              <mxPoint x="440" y="-20" />
            </Array>
          </mxGeometry>
        </mxCell>
        <mxCell id="RFu0Am9u5nQgDgnjEsIO-77" value="" style="endArrow=none;dashed=1;html=1;dashPattern=1 3;strokeWidth=2;rounded=0;exitX=1;exitY=0.5;exitDx=0;exitDy=0;entryX=-0.25;entryY=0.567;entryDx=0;entryDy=0;entryPerimeter=0;" edge="1" parent="1" source="Ko5TodTb07DRkb56tdF9-10" target="RFu0Am9u5nQgDgnjEsIO-40">
          <mxGeometry width="50" height="50" relative="1" as="geometry">
            <mxPoint x="550" y="40" as="sourcePoint" />
            <mxPoint x="600" y="-10" as="targetPoint" />
            <Array as="points" />
          </mxGeometry>
        </mxCell>
        <mxCell id="RFu0Am9u5nQgDgnjEsIO-78" value="" style="endArrow=none;dashed=1;html=1;dashPattern=1 3;strokeWidth=2;rounded=0;exitX=1;exitY=0.5;exitDx=0;exitDy=0;" edge="1" parent="1" source="RFu0Am9u5nQgDgnjEsIO-72" target="RFu0Am9u5nQgDgnjEsIO-52">
          <mxGeometry width="50" height="50" relative="1" as="geometry">
            <mxPoint x="780" y="280" as="sourcePoint" />
            <mxPoint x="830" y="230" as="targetPoint" />
            <Array as="points" />
          </mxGeometry>
        </mxCell>
      </root>
    </mxGraphModel>
  </diagram>
</mxfile>
